<svg xmlns="http://www.w3.org/2000/svg" viewBox="0 0 64 64">
  <path d="M32 4C16.536 4 4 16.536 4 32c0 8.284 3.582 15.75 9.314 20.98C14.9 54.4 16.9 55 19 55c3 0 5-2 5-5v-2c0-2.21 1.79-4 4-4h3c8.837 0 16-7.163 16-16 0-13.255-6.716-24-15-24z" fill="#c49a2a"/>
  <circle cx="18" cy="26" r="4" fill="#e8c56d"/>
  <circle cx="26" cy="16" r="4" fill="#fb923c"/>
  <circle cx="38" cy="16" r="4" fill="#e8c56d"/>
  <circle cx="46" cy="26" r="4" fill="#34d399"/>
  <circle cx="28" cy="48" r="3" fill="#e879f9" opacity="0.85"/>
</svg>
